<?xml version="1.0" encoding="utf-8"?>
<!-- Generator: Adobe Illustrator 16.0.0, SVG Export Plug-In . SVG Version: 6.00 Build 0)  -->
<!DOCTYPE svg PUBLIC "-//W3C//DTD SVG 1.1//EN" "http://www.w3.org/Graphics/SVG/1.1/DTD/svg11.dtd">
<svg version="1.1" id="Layer_1" xmlns="http://www.w3.org/2000/svg" xmlns:xlink="http://www.w3.org/1999/xlink" x="0px" y="0px"
	 width="256px" height="256px" viewBox="1021.5 680.5 256 256" enable-background="new 1021.5 680.5 256 256" xml:space="preserve">
<g>
	<g enable-background="new    ">
		<path fill="#F05147" d="M91.778,118.854c-8.693,3.787-16.472,8.694-23.348,14.711v84.479H23.454V77.052h22.918l12.604,20.1
			c6.683-5.243,14.418-9.95,23.205-14.128c8.782-4.174,16.709-6.263,23.777-6.263l8.881,36.413
			C108.151,113.174,100.466,115.067,91.778,118.854z"/>
		<path fill="#F05147" d="M196.482,72.391c14.131,0,26.069,3.304,35.809,9.904c9.74,6.604,17.045,15.439,21.915,26.509
			c4.87,11.07,7.305,23.5,7.305,37.288v13.691h-89.093c4.199,16.51,16.423,24.762,36.668,24.762c13.178,0,26.257-3.688,39.247-11.07
			l12.605,31.753c-6.495,4.856-14.467,8.739-23.92,11.652s-19.816,4.37-31.083,4.37c-25.402,0-45.406-6.505-60.016-19.519
			c-14.61-13.009-21.915-31.069-21.915-54.183c0-15.148,3.053-28.402,9.167-39.764c6.11-11.361,14.655-20.1,25.639-26.218
			C169.791,75.45,182.346,72.391,196.482,72.391z M195.336,109.97c-6.302,0-11.602,2.185-15.899,6.554
			c-4.297,4.37-6.831,10.15-7.592,17.333h46.981c-1.146-7.183-3.679-12.963-7.591-17.333
			C207.319,112.154,202.019,109.97,195.336,109.97z"/>
		<path fill="#F05147" d="M418.494,76.761l-54.717,141.284h-40.679L272.107,84.043l42.398-12.526l29.793,87.975l28.647-82.731
			H418.494z"/>
		<path fill="#F05147" d="M483.522,32.19c0,6.8-2.435,12.672-7.305,17.624s-10.742,7.428-17.618,7.428
			c-6.688,0-12.461-2.476-17.331-7.428s-7.306-10.824-7.306-17.624c0-6.991,2.436-12.963,7.306-17.916s10.644-7.428,17.331-7.428
			c6.876,0,12.748,2.476,17.618,7.428S483.522,25.199,483.522,32.19z M481.231,76.761v141.284h-44.977V76.761H481.231z"/>
		<path fill="#F05147" d="M551.986,194.158c0,6.604-2.247,12.234-6.732,16.896c-4.489,4.661-10.075,6.991-16.759,6.991
			c-6.688,0-12.318-2.33-16.901-6.991c-4.584-4.661-6.876-10.292-6.876-16.896c0-6.797,2.292-12.527,6.876-17.188
			c4.583-4.661,10.214-6.992,16.901-6.992c6.684,0,12.27,2.331,16.759,6.992C549.739,181.631,551.986,187.361,551.986,194.158z"/>
	</g>
</g>
<rect x="4.851" y="265.52" fill="none" width="559.419" height="54.742"/>
<g enable-background="new    ">
	<path fill="#3A3A3A" d="M15.124,271.246h-9v-3.183h21.82v3.183h-9v26.639h-3.819V271.246z"/>
	<path fill="#3A3A3A" d="M37.308,298.431c-2.364,0-4.084-0.728-5.16-2.183c-1.076-1.454-1.614-3.605-1.614-6.455v-14.001h3.773
		v13.501c0,2.091,0.325,3.6,0.977,4.523c0.651,0.925,1.705,1.387,3.16,1.387c1.151,0,2.166-0.296,3.045-0.887
		c0.879-0.591,1.848-1.538,2.91-2.841v-15.684h3.728v22.093h-3.091l-0.318-3.455h-0.136c-1.031,1.213-2.114,2.183-3.25,2.909
		C40.195,298.066,38.854,298.431,37.308,298.431z"/>
	<path fill="#3A3A3A" d="M61.355,298.431c-1.576,0-3.076-0.289-4.5-0.864c-1.425-0.575-2.667-1.303-3.728-2.182l1.864-2.5
		c0.969,0.788,1.962,1.425,2.978,1.909c1.015,0.484,2.189,0.727,3.523,0.727c1.455,0,2.546-0.333,3.273-1
		c0.728-0.666,1.091-1.484,1.091-2.454c0-0.575-0.152-1.076-0.455-1.5c-0.304-0.425-0.69-0.796-1.159-1.114
		c-0.47-0.318-1.008-0.598-1.614-0.841c-0.607-0.242-1.213-0.484-1.818-0.728c-0.789-0.272-1.576-0.583-2.364-0.932
		s-1.493-0.773-2.114-1.273c-0.622-0.5-1.129-1.083-1.523-1.75c-0.394-0.666-0.591-1.47-0.591-2.409
		c0-0.879,0.174-1.704,0.523-2.478c0.348-0.772,0.848-1.438,1.5-2c0.651-0.561,1.447-1,2.387-1.318c0.939-0.318,2-0.478,3.182-0.478
		c1.394,0,2.674,0.243,3.841,0.728c1.166,0.485,2.174,1.076,3.023,1.773l-1.773,2.363c-0.758-0.575-1.546-1.046-2.364-1.409
		c-0.818-0.363-1.713-0.546-2.682-0.546c-1.395,0-2.417,0.318-3.068,0.955c-0.652,0.637-0.978,1.38-0.978,2.228
		c0,0.516,0.136,0.962,0.409,1.341c0.272,0.38,0.636,0.713,1.091,1c0.455,0.289,0.978,0.546,1.568,0.773
		c0.591,0.227,1.205,0.462,1.841,0.704c0.788,0.304,1.583,0.622,2.386,0.955c0.803,0.334,1.523,0.75,2.16,1.25
		c0.636,0.5,1.159,1.113,1.568,1.841c0.409,0.728,0.613,1.606,0.613,2.637c0,0.909-0.174,1.758-0.522,2.546
		c-0.349,0.788-0.864,1.485-1.546,2.091c-0.682,0.606-1.53,1.084-2.545,1.432C63.817,298.256,62.658,298.431,61.355,298.431z"/>
	<path fill="#3A3A3A" d="M92.448,298.431c-1.455,0-2.818-0.258-4.091-0.773c-1.273-0.515-2.372-1.265-3.295-2.25
		c-0.925-0.984-1.652-2.197-2.182-3.637c-0.531-1.439-0.795-3.068-0.795-4.887c0-1.849,0.288-3.492,0.863-4.933
		c0.576-1.438,1.348-2.659,2.319-3.659c0.969-1,2.098-1.757,3.386-2.272s2.644-0.773,4.069-0.773c1.455,0,2.697,0.258,3.728,0.773
		c1.03,0.516,1.939,1.121,2.728,1.818l-1.909,2.454c-0.637-0.575-1.312-1.045-2.023-1.409c-0.712-0.363-1.508-0.545-2.387-0.545
		c-1,0-1.925,0.204-2.773,0.613c-0.849,0.409-1.576,0.993-2.182,1.75c-0.606,0.758-1.084,1.659-1.432,2.705
		c-0.349,1.046-0.523,2.205-0.523,3.478s0.166,2.425,0.5,3.455c0.333,1.03,0.795,1.917,1.387,2.659
		c0.591,0.743,1.31,1.318,2.159,1.728c0.848,0.409,1.773,0.613,2.773,0.613c1.03,0,1.978-0.22,2.841-0.659
		c0.863-0.438,1.644-0.962,2.341-1.568l1.637,2.501c-1,0.879-2.107,1.567-3.318,2.068C95.054,298.181,93.782,298.431,92.448,298.431
		z"/>
	<path fill="#3A3A3A" d="M108.404,298.431c-1.425,0-2.44-0.425-3.046-1.273c-0.606-0.848-0.909-2.091-0.909-3.728v-27.911h3.728
		v28.184c0,0.607,0.106,1.031,0.318,1.273c0.211,0.243,0.455,0.363,0.728,0.363c0.121,0,0.234,0,0.341,0
		c0.106,0,0.265-0.029,0.477-0.091l0.5,2.818c-0.243,0.121-0.53,0.212-0.863,0.272C109.343,298.399,108.919,298.431,108.404,298.431
		z"/>
	<path fill="#3A3A3A" d="M117.949,271.246c-0.727,0-1.341-0.228-1.841-0.682c-0.5-0.455-0.75-1.03-0.75-1.728
		c0-0.728,0.25-1.311,0.75-1.75s1.114-0.659,1.841-0.659c0.728,0,1.341,0.22,1.841,0.659s0.75,1.022,0.75,1.75
		c0,0.697-0.25,1.272-0.75,1.728C119.291,271.019,118.677,271.246,117.949,271.246z M116.04,275.792h3.728v22.093h-3.728V275.792z"
		/>
	<path fill="#3A3A3A" d="M136.178,298.431c-1.485,0-2.872-0.266-4.16-0.796c-1.289-0.53-2.409-1.288-3.364-2.273
		c-0.955-0.984-1.705-2.188-2.25-3.613c-0.545-1.425-0.818-3.046-0.818-4.864s0.28-3.447,0.841-4.887
		c0.561-1.439,1.303-2.659,2.228-3.659c0.924-1,1.978-1.766,3.159-2.296c1.182-0.53,2.409-0.796,3.682-0.796
		c1.394,0,2.644,0.243,3.75,0.728c1.106,0.485,2.03,1.182,2.773,2.091c0.742,0.909,1.311,2.001,1.705,3.273
		c0.394,1.272,0.591,2.697,0.591,4.273c0,0.394-0.008,0.78-0.022,1.159c-0.016,0.379-0.053,0.704-0.114,0.977h-14.91
		c0.151,2.364,0.886,4.236,2.205,5.614c1.318,1.38,3.038,2.068,5.16,2.068c1.061,0,2.038-0.159,2.932-0.477
		c0.894-0.318,1.75-0.735,2.568-1.251l1.318,2.455c-0.971,0.606-2.046,1.137-3.228,1.591
		C139.042,298.203,137.694,298.431,136.178,298.431z M141.042,285.065c0-2.242-0.477-3.947-1.432-5.114
		c-0.955-1.166-2.296-1.75-4.023-1.75c-0.788,0-1.538,0.152-2.25,0.455c-0.712,0.303-1.356,0.75-1.932,1.341
		s-1.053,1.311-1.432,2.159c-0.379,0.849-0.629,1.818-0.75,2.909H141.042z"/>
	<path fill="#3A3A3A" d="M149.77,275.792h3.091l0.318,3.182h0.136c1.061-1.061,2.174-1.946,3.341-2.659
		c1.166-0.712,2.523-1.068,4.068-1.068c2.333,0,4.038,0.728,5.114,2.183c1.075,1.454,1.614,3.606,1.614,6.455v14.001h-3.728v-13.501
		c0-2.092-0.334-3.599-1-4.523c-0.667-0.924-1.727-1.387-3.182-1.387c-1.152,0-2.167,0.289-3.045,0.864
		c-0.879,0.576-1.879,1.425-3,2.546v16.001h-3.728V275.792z"/>
	<path fill="#3A3A3A" d="M181.591,298.431c-1.182,0-2.175-0.183-2.978-0.546c-0.803-0.363-1.455-0.863-1.955-1.5
		s-0.856-1.409-1.068-2.318c-0.212-0.909-0.318-1.909-0.318-3v-12.229h-3.273v-2.818l3.455-0.228l0.455-6.183h3.137v6.183H185v3.046
		h-5.955v12.273c0,1.364,0.25,2.417,0.75,3.159c0.5,0.743,1.386,1.114,2.659,1.114c0.394,0,0.818-0.061,1.273-0.182
		s0.864-0.258,1.228-0.409l0.727,2.818c-0.606,0.212-1.266,0.401-1.978,0.568C182.992,298.347,182.287,298.431,181.591,298.431z"/>
	<path fill="#3A3A3A" d="M198.32,298.431c-1.485,0-2.872-0.266-4.16-0.796c-1.289-0.53-2.409-1.288-3.364-2.273
		c-0.955-0.984-1.705-2.188-2.25-3.613c-0.545-1.425-0.818-3.046-0.818-4.864s0.28-3.447,0.841-4.887
		c0.561-1.439,1.303-2.659,2.228-3.659c0.924-1,1.978-1.766,3.159-2.296c1.182-0.53,2.409-0.796,3.682-0.796
		c1.394,0,2.644,0.243,3.75,0.728c1.106,0.485,2.03,1.182,2.773,2.091c0.742,0.909,1.311,2.001,1.705,3.273
		c0.394,1.272,0.591,2.697,0.591,4.273c0,0.394-0.008,0.78-0.022,1.159c-0.016,0.379-0.053,0.704-0.114,0.977h-14.91
		c0.151,2.364,0.886,4.236,2.205,5.614c1.318,1.38,3.038,2.068,5.16,2.068c1.061,0,2.038-0.159,2.932-0.477
		c0.894-0.318,1.75-0.735,2.568-1.251l1.318,2.455c-0.971,0.606-2.046,1.137-3.228,1.591
		C201.183,298.203,199.835,298.431,198.32,298.431z M203.183,285.065c0-2.242-0.477-3.947-1.432-5.114
		c-0.955-1.166-2.296-1.75-4.023-1.75c-0.788,0-1.538,0.152-2.25,0.455c-0.712,0.303-1.356,0.75-1.932,1.341
		s-1.053,1.311-1.432,2.159c-0.379,0.849-0.629,1.818-0.75,2.909H203.183z"/>
	<path fill="#3A3A3A" d="M217.684,298.431c-1.576,0-3.076-0.289-4.5-0.864c-1.425-0.575-2.667-1.303-3.728-2.182l1.864-2.5
		c0.969,0.788,1.962,1.425,2.978,1.909c1.015,0.484,2.189,0.727,3.523,0.727c1.455,0,2.546-0.333,3.273-1
		c0.728-0.666,1.091-1.484,1.091-2.454c0-0.575-0.152-1.076-0.455-1.5c-0.304-0.425-0.69-0.796-1.159-1.114
		c-0.47-0.318-1.008-0.598-1.614-0.841c-0.607-0.242-1.213-0.484-1.818-0.728c-0.789-0.272-1.576-0.583-2.364-0.932
		s-1.493-0.773-2.114-1.273c-0.622-0.5-1.129-1.083-1.523-1.75c-0.394-0.666-0.591-1.47-0.591-2.409
		c0-0.879,0.174-1.704,0.523-2.478c0.348-0.772,0.848-1.438,1.5-2c0.651-0.561,1.447-1,2.387-1.318c0.939-0.318,2-0.478,3.182-0.478
		c1.394,0,2.674,0.243,3.841,0.728c1.166,0.485,2.174,1.076,3.023,1.773l-1.773,2.363c-0.758-0.575-1.546-1.046-2.364-1.409
		c-0.818-0.363-1.713-0.546-2.682-0.546c-1.395,0-2.417,0.318-3.068,0.955c-0.652,0.637-0.978,1.38-0.978,2.228
		c0,0.516,0.136,0.962,0.409,1.341c0.272,0.38,0.636,0.713,1.091,1c0.455,0.289,0.978,0.546,1.568,0.773
		c0.591,0.227,1.205,0.462,1.841,0.704c0.788,0.304,1.583,0.622,2.386,0.955c0.803,0.334,1.523,0.75,2.16,1.25
		c0.636,0.5,1.159,1.113,1.568,1.841c0.409,0.728,0.613,1.606,0.613,2.637c0,0.909-0.174,1.758-0.522,2.546
		c-0.349,0.788-0.864,1.485-1.546,2.091c-0.682,0.606-1.53,1.084-2.545,1.432C220.146,298.256,218.987,298.431,217.684,298.431z"/>
	<path fill="#3A3A3A" d="M248.641,298.431c-1.364,0-2.659-0.258-3.887-0.773c-1.228-0.515-2.312-1.265-3.25-2.25
		c-0.939-0.984-1.689-2.197-2.25-3.637c-0.561-1.439-0.841-3.068-0.841-4.887c0-1.849,0.28-3.492,0.841-4.933
		c0.561-1.438,1.311-2.659,2.25-3.659c0.939-1,2.023-1.757,3.25-2.272s2.523-0.773,3.887-0.773s2.659,0.258,3.887,0.773
		s2.311,1.272,3.25,2.272s1.689,2.221,2.25,3.659c0.561,1.44,0.841,3.084,0.841,4.933c0,1.818-0.28,3.447-0.841,4.887
		c-0.561,1.439-1.311,2.652-2.25,3.637c-0.939,0.985-2.022,1.735-3.25,2.25C251.3,298.173,250.005,298.431,248.641,298.431z
		 M248.641,295.339c0.939,0,1.803-0.204,2.591-0.613c0.788-0.409,1.461-0.984,2.022-1.728c0.561-0.742,0.993-1.629,1.296-2.659
		c0.302-1.03,0.455-2.183,0.455-3.455s-0.152-2.432-0.455-3.478c-0.303-1.046-0.735-1.947-1.296-2.705
		c-0.561-0.757-1.235-1.341-2.022-1.75c-0.789-0.409-1.652-0.613-2.591-0.613c-0.94,0-1.804,0.204-2.591,0.613
		c-0.788,0.409-1.462,0.993-2.023,1.75c-0.561,0.758-0.993,1.659-1.295,2.705c-0.303,1.046-0.455,2.205-0.455,3.478
		s0.151,2.425,0.455,3.455c0.303,1.03,0.734,1.917,1.295,2.659c0.561,0.743,1.235,1.318,2.023,1.728
		C246.837,295.135,247.701,295.339,248.641,295.339z"/>
	<path fill="#3A3A3A" d="M264.687,275.792h3.091l0.318,2.546h0.136c1-0.849,2.098-1.576,3.296-2.183
		c1.197-0.605,2.447-0.909,3.75-0.909c1.424,0,2.682,0.266,3.773,0.796c1.091,0.53,2,1.288,2.728,2.272
		c0.728,0.985,1.28,2.168,1.66,3.546c0.378,1.38,0.568,2.933,0.568,4.66c0,1.879-0.258,3.553-0.772,5.022
		c-0.516,1.471-1.213,2.721-2.091,3.751c-0.879,1.03-1.895,1.811-3.046,2.341c-1.152,0.53-2.364,0.796-3.637,0.796
		c-1.03,0-2.053-0.228-3.068-0.683c-1.016-0.454-2.039-1.075-3.068-1.863l0.091,3.864v7.455h-3.728V275.792z M273.824,295.294
		c0.909,0,1.75-0.205,2.523-0.614s1.439-0.984,2-1.728c0.561-0.742,1-1.659,1.318-2.75c0.318-1.091,0.478-2.318,0.478-3.682
		c0-1.212-0.106-2.318-0.318-3.319c-0.212-1-0.553-1.855-1.023-2.568c-0.47-0.711-1.076-1.265-1.818-1.659
		c-0.743-0.394-1.629-0.591-2.659-0.591c-0.939,0-1.886,0.258-2.841,0.773c-0.955,0.516-1.977,1.258-3.068,2.227v11.593
		c1,0.849,1.97,1.447,2.91,1.795C272.263,295.119,273.097,295.294,273.824,295.294z"/>
	<path fill="#3A3A3A" d="M291.826,271.246c-0.728,0-1.342-0.228-1.842-0.682c-0.5-0.455-0.75-1.03-0.75-1.728
		c0-0.728,0.25-1.311,0.75-1.75s1.114-0.659,1.842-0.659c0.727,0,1.341,0.22,1.841,0.659s0.75,1.022,0.75,1.75
		c0,0.697-0.25,1.272-0.75,1.728C293.167,271.019,292.553,271.246,291.826,271.246z M289.916,275.792h3.729v22.093h-3.729V275.792z"
		/>
	<path fill="#3A3A3A" d="M301.099,275.792h3.091l0.318,3.182h0.137c1.061-1.061,2.174-1.946,3.342-2.659
		c1.166-0.712,2.522-1.068,4.068-1.068c2.332,0,4.037,0.728,5.113,2.183c1.076,1.454,1.613,3.606,1.613,6.455v14.001h-3.727v-13.501
		c0-2.092-0.334-3.599-1-4.523c-0.668-0.924-1.729-1.387-3.184-1.387c-1.15,0-2.166,0.289-3.045,0.864
		c-0.879,0.576-1.879,1.425-3,2.546v16.001h-3.728V275.792z"/>
	<path fill="#3A3A3A" d="M331.057,298.431c-1.85,0-3.387-0.546-4.615-1.637c-1.227-1.091-1.84-2.637-1.84-4.637
		c0-2.425,1.074-4.28,3.227-5.569c2.152-1.287,5.592-2.188,10.318-2.704c0-0.697-0.066-1.379-0.203-2.046
		c-0.137-0.666-0.373-1.257-0.705-1.772c-0.334-0.516-0.795-0.933-1.387-1.251c-0.592-0.317-1.342-0.477-2.25-0.477
		c-1.273,0-2.471,0.242-3.592,0.727c-1.121,0.485-2.121,1.031-3,1.637l-1.455-2.591c1.031-0.666,2.289-1.311,3.773-1.932
		s3.121-0.933,4.91-0.933c2.697,0,4.65,0.826,5.863,2.478c1.213,1.652,1.818,3.857,1.818,6.614v13.547h-3.09l-0.318-2.637h-0.137
		c-1.063,0.88-2.197,1.63-3.41,2.25C333.752,298.119,332.449,298.431,331.057,298.431z M332.147,295.43c1.061,0,2.061-0.25,3-0.75
		s1.939-1.234,3-2.204v-6.138c-1.848,0.243-3.402,0.531-4.658,0.864c-1.258,0.334-2.273,0.728-3.047,1.182
		c-0.771,0.455-1.334,0.978-1.682,1.568s-0.521,1.235-0.521,1.932c0,1.273,0.377,2.183,1.135,2.728
		C330.131,295.157,331.057,295.43,332.147,295.43z"/>
	<path fill="#3A3A3A" d="M348.875,275.792h3.092l0.318,3.182h0.137c1.061-1.061,2.174-1.946,3.34-2.659
		c1.168-0.712,2.523-1.068,4.07-1.068c2.332,0,4.037,0.728,5.113,2.183c1.076,1.454,1.613,3.606,1.613,6.455v14.001h-3.727v-13.501
		c0-2.092-0.334-3.599-1-4.523c-0.668-0.924-1.729-1.387-3.184-1.387c-1.152,0-2.166,0.289-3.045,0.864
		c-0.879,0.576-1.879,1.425-3,2.546v16.001h-3.729V275.792z"/>
	<path fill="#3A3A3A" d="M372.151,303.431c1.271-0.576,2.271-1.334,3-2.272c0.727-0.94,1.09-2.031,1.09-3.273
		c-0.09,0.03-0.242,0.046-0.453,0.046c-0.729,0-1.357-0.22-1.887-0.659c-0.531-0.439-0.797-1.084-0.797-1.933
		c0-0.818,0.273-1.462,0.818-1.932c0.547-0.47,1.197-0.705,1.955-0.705c0.971,0,1.734,0.395,2.297,1.183
		c0.561,0.788,0.84,1.863,0.84,3.228c0,1.97-0.529,3.682-1.59,5.137c-1.063,1.454-2.518,2.575-4.365,3.363L372.151,303.431z"/>
	<path fill="#3A3A3A" d="M401.108,298.431c-1.182,0-2.176-0.183-2.979-0.546s-1.453-0.863-1.953-1.5
		c-0.502-0.637-0.857-1.409-1.068-2.318c-0.213-0.909-0.318-1.909-0.318-3v-12.229h-3.273v-2.818l3.455-0.228l0.453-6.183h3.137
		v6.183h5.955v3.046h-5.955v12.273c0,1.364,0.25,2.417,0.75,3.159c0.5,0.743,1.387,1.114,2.66,1.114
		c0.395,0,0.818-0.061,1.273-0.182c0.453-0.121,0.863-0.258,1.227-0.409l0.729,2.818c-0.607,0.212-1.266,0.401-1.979,0.568
		C402.508,298.347,401.805,298.431,401.108,298.431z"/>
	<path fill="#3A3A3A" d="M415.971,298.431c-2.363,0-4.084-0.728-5.158-2.183c-1.076-1.454-1.615-3.605-1.615-6.455v-14.001h3.773
		v13.501c0,2.091,0.326,3.6,0.979,4.523c0.65,0.925,1.703,1.387,3.158,1.387c1.152,0,2.166-0.296,3.047-0.887
		c0.877-0.591,1.848-1.538,2.908-2.841v-15.684h3.729v22.093h-3.092l-0.318-3.455h-0.137c-1.029,1.213-2.113,2.183-3.25,2.909
		C418.858,298.066,417.518,298.431,415.971,298.431z M415.608,269.974l6.41-7.592l2.637,2.5l-7.137,6.955L415.608,269.974z"/>
	<path fill="#3A3A3A" d="M450.793,308.067c-1.363,0-2.607-0.129-3.729-0.387s-2.084-0.644-2.887-1.159s-1.424-1.136-1.863-1.863
		s-0.658-1.576-0.658-2.546c0-0.939,0.287-1.834,0.863-2.682c0.574-0.849,1.363-1.621,2.363-2.318v-0.183
		c-0.545-0.333-1.008-0.795-1.387-1.386s-0.568-1.326-0.568-2.205c0-0.939,0.258-1.757,0.773-2.455
		c0.516-0.696,1.061-1.242,1.637-1.636v-0.183c-0.729-0.605-1.387-1.416-1.979-2.432c-0.59-1.015-0.885-2.189-0.885-3.523
		c0-1.211,0.219-2.303,0.658-3.272s1.037-1.796,1.795-2.478s1.645-1.205,2.66-1.568c1.016-0.364,2.084-0.546,3.205-0.546
		c0.605,0,1.174,0.054,1.705,0.159c0.529,0.106,1.006,0.235,1.432,0.387h7.682v2.864h-4.545c0.514,0.516,0.947,1.167,1.295,1.954
		c0.348,0.788,0.523,1.652,0.523,2.591c0,1.183-0.213,2.251-0.637,3.205c-0.426,0.955-1,1.758-1.729,2.409
		c-0.727,0.652-1.584,1.159-2.568,1.523c-0.984,0.363-2.037,0.545-3.158,0.545c-0.545,0-1.107-0.067-1.682-0.204
		c-0.576-0.137-1.123-0.325-1.637-0.568c-0.395,0.334-0.729,0.705-1,1.113c-0.273,0.409-0.41,0.917-0.41,1.523
		c0,0.697,0.273,1.272,0.818,1.728c0.547,0.454,1.576,0.682,3.092,0.682h4.273c2.574,0,4.508,0.417,5.795,1.25
		c1.289,0.834,1.932,2.175,1.932,4.023c0,1.029-0.258,2.007-0.771,2.932c-0.516,0.924-1.258,1.734-2.229,2.433
		c-0.969,0.696-2.145,1.25-3.521,1.659C454.073,307.863,452.52,308.067,450.793,308.067z M451.338,305.477
		c1.061,0,2.023-0.13,2.887-0.387c0.863-0.258,1.598-0.591,2.205-1c0.605-0.409,1.076-0.887,1.408-1.432
		c0.334-0.546,0.5-1.106,0.5-1.683c0-1.03-0.379-1.743-1.135-2.136c-0.758-0.395-1.865-0.592-3.318-0.592h-3.82
		c-0.424,0-0.885-0.022-1.385-0.067c-0.5-0.046-0.994-0.145-1.479-0.296c-0.789,0.575-1.363,1.182-1.727,1.818
		s-0.547,1.272-0.547,1.909c0,1.182,0.568,2.121,1.705,2.818S449.338,305.477,451.338,305.477z M450.793,288.384
		c0.637,0,1.234-0.121,1.795-0.363s1.061-0.591,1.5-1.046c0.439-0.454,0.781-1.007,1.023-1.659c0.242-0.651,0.363-1.387,0.363-2.205
		c0-1.636-0.455-2.901-1.363-3.796c-0.91-0.894-2.016-1.341-3.318-1.341s-2.41,0.447-3.318,1.341
		c-0.91,0.895-1.363,2.16-1.363,3.796c0,0.818,0.119,1.554,0.363,2.205c0.242,0.652,0.582,1.205,1.021,1.659
		c0.439,0.455,0.939,0.804,1.5,1.046S450.156,288.384,450.793,288.384z"/>
	<path fill="#3A3A3A" d="M470.614,298.431c-1.85,0-3.387-0.546-4.615-1.637c-1.227-1.091-1.84-2.637-1.84-4.637
		c0-2.425,1.074-4.28,3.227-5.569c2.152-1.287,5.592-2.188,10.318-2.704c0-0.697-0.066-1.379-0.203-2.046
		c-0.137-0.666-0.373-1.257-0.705-1.772c-0.334-0.516-0.795-0.933-1.387-1.251c-0.592-0.317-1.342-0.477-2.25-0.477
		c-1.273,0-2.471,0.242-3.592,0.727c-1.121,0.485-2.121,1.031-3,1.637l-1.455-2.591c1.031-0.666,2.289-1.311,3.773-1.932
		s3.121-0.933,4.91-0.933c2.697,0,4.65,0.826,5.863,2.478c1.213,1.652,1.818,3.857,1.818,6.614v13.547h-3.09l-0.318-2.637h-0.137
		c-1.063,0.88-2.197,1.63-3.41,2.25C473.309,298.119,472.006,298.431,470.614,298.431z M471.703,295.43c1.061,0,2.061-0.25,3-0.75
		s1.939-1.234,3-2.204v-6.138c-1.848,0.243-3.402,0.531-4.658,0.864c-1.258,0.334-2.273,0.728-3.047,1.182
		c-0.771,0.455-1.334,0.978-1.682,1.568s-0.521,1.235-0.521,1.932c0,1.273,0.377,2.183,1.135,2.728
		C469.688,295.157,470.614,295.43,471.703,295.43z"/>
	<path fill="#3A3A3A" d="M488.432,275.792h3.092l0.318,3.182h0.137c1.061-1.061,2.174-1.946,3.34-2.659
		c1.168-0.712,2.523-1.068,4.07-1.068c2.332,0,4.037,0.728,5.113,2.183c1.076,1.454,1.613,3.606,1.613,6.455v14.001h-3.727v-13.501
		c0-2.092-0.334-3.599-1-4.523c-0.668-0.924-1.729-1.387-3.184-1.387c-1.152,0-2.166,0.289-3.045,0.864
		c-0.879,0.576-1.879,1.425-3,2.546v16.001h-3.729V275.792z"/>
	<path fill="#3A3A3A" d="M518.391,298.431c-1.85,0-3.387-0.546-4.615-1.637c-1.227-1.091-1.84-2.637-1.84-4.637
		c0-2.425,1.074-4.28,3.227-5.569c2.152-1.287,5.592-2.188,10.318-2.704c0-0.697-0.066-1.379-0.203-2.046
		c-0.137-0.666-0.373-1.257-0.705-1.772c-0.334-0.516-0.795-0.933-1.387-1.251c-0.592-0.317-1.342-0.477-2.25-0.477
		c-1.273,0-2.471,0.242-3.592,0.727c-1.121,0.485-2.121,1.031-3,1.637l-1.455-2.591c1.031-0.666,2.289-1.311,3.773-1.932
		s3.121-0.933,4.91-0.933c2.697,0,4.65,0.826,5.863,2.478c1.213,1.652,1.818,3.857,1.818,6.614v13.547h-3.09l-0.318-2.637h-0.137
		c-1.063,0.88-2.197,1.63-3.41,2.25C521.086,298.119,519.783,298.431,518.391,298.431z M519.481,295.43c1.061,0,2.061-0.25,3-0.75
		s1.939-1.234,3-2.204v-6.138c-1.848,0.243-3.402,0.531-4.658,0.864c-1.258,0.334-2.273,0.728-3.047,1.182
		c-0.771,0.455-1.334,0.978-1.682,1.568s-0.521,1.235-0.521,1.932c0,1.273,0.377,2.183,1.135,2.728
		C517.465,295.157,518.391,295.43,519.481,295.43z"/>
	<path fill="#3A3A3A" d="M541.983,298.431c-1.576,0-3.076-0.289-4.502-0.864c-1.424-0.575-2.666-1.303-3.727-2.182l1.863-2.5
		c0.971,0.788,1.963,1.425,2.979,1.909c1.014,0.484,2.189,0.727,3.523,0.727c1.453,0,2.545-0.333,3.271-1
		c0.729-0.666,1.092-1.484,1.092-2.454c0-0.575-0.152-1.076-0.455-1.5c-0.303-0.425-0.689-0.796-1.158-1.114
		c-0.471-0.318-1.008-0.598-1.615-0.841c-0.605-0.242-1.211-0.484-1.818-0.728c-0.787-0.272-1.576-0.583-2.363-0.932
		c-0.789-0.349-1.492-0.773-2.113-1.273s-1.129-1.083-1.523-1.75c-0.395-0.666-0.59-1.47-0.59-2.409
		c0-0.879,0.174-1.704,0.521-2.478c0.348-0.772,0.848-1.438,1.5-2c0.652-0.561,1.447-1,2.387-1.318s2-0.478,3.182-0.478
		c1.395,0,2.676,0.243,3.842,0.728c1.166,0.485,2.174,1.076,3.023,1.773l-1.773,2.363c-0.758-0.575-1.545-1.046-2.363-1.409
		s-1.713-0.546-2.682-0.546c-1.395,0-2.418,0.318-3.068,0.955c-0.652,0.637-0.979,1.38-0.979,2.228c0,0.516,0.137,0.962,0.41,1.341
		c0.271,0.38,0.637,0.713,1.09,1c0.455,0.289,0.979,0.546,1.568,0.773c0.592,0.227,1.205,0.462,1.842,0.704
		c0.787,0.304,1.584,0.622,2.387,0.955c0.803,0.334,1.523,0.75,2.158,1.25c0.637,0.5,1.16,1.113,1.568,1.841
		c0.41,0.728,0.615,1.606,0.615,2.637c0,0.909-0.176,1.758-0.523,2.546c-0.35,0.788-0.863,1.485-1.545,2.091
		c-0.684,0.606-1.531,1.084-2.547,1.432C544.444,298.256,543.285,298.431,541.983,298.431z"/>
</g>
<g>
	<g enable-background="new    ">
		<path fill="#F05147" d="M276.447,828.408c-7.462,3.25-14.139,7.462-20.041,12.627v72.515H217.8V792.525h19.672l10.819,17.254
			c5.736-4.501,12.376-8.541,19.918-12.127c7.538-3.584,14.343-5.377,20.409-5.377l7.623,31.256
			C290.501,823.531,283.905,825.157,276.447,828.408z"/>
		<path fill="#F05147" d="M366.322,788.525c12.13,0,22.377,2.836,30.737,8.501c8.36,5.669,14.631,13.253,18.812,22.755
			s6.271,20.172,6.271,32.006v11.753h-76.475c3.604,14.171,14.097,21.254,31.475,21.254c11.312,0,22.538-3.165,33.688-9.502
			l10.819,27.256c-5.575,4.169-12.418,7.501-20.532,10.002s-17.01,3.751-26.68,3.751c-21.805,0-38.976-5.584-51.517-16.754
			c-12.54-11.166-18.811-26.67-18.811-46.51c0-13.002,2.62-24.379,7.868-34.131c5.245-9.752,12.579-17.254,22.008-22.505
			C343.41,791.15,354.188,788.525,366.322,788.525z M365.338,820.781c-5.41,0-9.959,1.875-13.647,5.626s-5.863,8.713-6.517,14.878
			h40.328c-0.984-6.165-3.158-11.127-6.517-14.878C375.623,822.656,371.074,820.781,365.338,820.781z"/>
		<path fill="#F05147" d="M556.89,792.275L509.923,913.55h-34.917l-43.771-115.022l36.393-10.752l25.574,75.515l24.59-71.015H556.89
			z"/>
		<path fill="#F05147" d="M612.708,754.018c0,5.838-2.091,10.877-6.271,15.129c-4.181,4.25-9.222,6.376-15.123,6.376
			c-5.74,0-10.696-2.126-14.877-6.376c-4.18-4.252-6.271-9.291-6.271-15.129c0-6.001,2.091-11.127,6.271-15.377
			c4.181-4.252,9.137-6.377,14.877-6.377c5.901,0,10.942,2.125,15.123,6.377C610.617,742.891,612.708,748.017,612.708,754.018z
			 M610.74,792.275V913.55h-38.605V792.275H610.74z"/>
		<path fill="#F05147" d="M671.475,893.046c0,5.669-1.929,10.502-5.778,14.503c-3.854,4-8.649,6.001-14.386,6.001
			c-5.74,0-10.573-2.001-14.508-6.001c-3.935-4.001-5.901-8.834-5.901-14.503c0-5.833,1.967-10.753,5.901-14.753
			c3.935-4.001,8.768-6.002,14.508-6.002c5.736,0,10.532,2.001,14.386,6.002C669.546,882.293,671.475,887.213,671.475,893.046z"/>
	</g>
</g>
<g opacity="0.8">
	<g>
		<path fill="#3A3A3A" d="M225.755,977.377h-7.615v-37.121h20.924v6.449h-13.309v9.572h12.385v6.424h-12.385V977.377z"/>
		<path fill="#3A3A3A" d="M261.187,948.457c1.031,0,1.889,0.076,2.571,0.229l-0.574,7.262c-0.616-0.17-1.365-0.254-2.247-0.254
			c-2.431,0-4.324,0.635-5.681,1.904s-2.035,3.047-2.035,5.332v14.447h-7.615V948.99h5.768l1.124,4.773h0.374
			c0.865-1.592,2.035-2.873,3.509-3.848C257.853,948.943,259.455,948.457,261.187,948.457z"/>
		<path fill="#3A3A3A" d="M268.502,941.652c0-2.522,1.381-3.783,4.145-3.783c2.763,0,4.145,1.261,4.145,3.783
			c0,1.201-0.346,2.137-1.036,2.805c-0.69,0.67-1.727,1.004-3.108,1.004C269.883,945.461,268.502,944.191,268.502,941.652z
			 M276.442,977.377h-7.615V948.99h7.615V977.377z"/>
		<path fill="#3A3A3A" d="M297.068,977.885c-4.495,0-8.008-1.262-10.537-3.783c-2.531-2.522-3.796-6.094-3.796-10.715
			c0-4.757,1.17-8.434,3.509-11.033c2.338-2.598,5.571-3.896,9.7-3.896c3.945,0,7.017,1.143,9.214,3.428s3.296,5.441,3.296,9.471
			v3.758H290.45c0.083,2.2,0.724,3.918,1.923,5.154c1.198,1.235,2.879,1.854,5.044,1.854c1.681,0,3.271-0.178,4.769-0.533
			s3.063-0.923,4.694-1.701v5.992c-1.332,0.677-2.755,1.18-4.27,1.51C301.095,977.719,299.247,977.885,297.068,977.885z
			 M295.993,953.967c-1.614,0-2.88,0.52-3.795,1.561c-0.916,1.041-1.44,2.519-1.573,4.432h10.687
			c-0.033-1.913-0.524-3.391-1.473-4.432C298.89,954.486,297.608,953.967,295.993,953.967z"/>
		<path fill="#3A3A3A" d="M340.413,977.377h-7.616v-16.58c0-2.049-0.358-3.584-1.073-4.609c-0.716-1.023-1.856-1.535-3.421-1.535
			c-2.131,0-3.671,0.723-4.619,2.17c-0.949,1.447-1.424,3.848-1.424,7.199v13.355h-7.615V948.99h5.817l1.024,3.631h0.424
			c0.85-1.371,2.019-2.408,3.509-3.111c1.489-0.701,3.184-1.053,5.081-1.053c3.246,0,5.709,0.893,7.391,2.678
			c1.682,1.787,2.522,4.363,2.522,7.732V977.377z"/>
		<path fill="#3A3A3A" d="M357.093,977.885c-3.279,0-5.855-1.295-7.728-3.885c-1.873-2.59-2.81-6.179-2.81-10.766
			c0-4.655,0.953-8.281,2.859-10.881c1.905-2.598,4.532-3.896,7.878-3.896c3.512,0,6.192,1.388,8.04,4.164h0.249
			c-0.383-2.116-0.574-4.004-0.574-5.662v-9.09h7.641v39.508h-5.843l-1.473-3.682h-0.325
			C363.277,976.488,360.639,977.885,357.093,977.885z M359.765,971.715c1.947,0,3.375-0.576,4.282-1.727
			c0.907-1.151,1.402-3.106,1.485-5.865v-0.838c0-3.047-0.462-5.23-1.386-6.551s-2.426-1.98-4.507-1.98
			c-1.698,0-3.018,0.732-3.957,2.195c-0.941,1.465-1.411,3.594-1.411,6.387s0.475,4.887,1.423,6.283
			C356.644,971.016,358,971.715,359.765,971.715z"/>
		<path fill="#3A3A3A" d="M388.229,977.377h-7.615v-39.508h7.615V977.377z"/>
		<path fill="#3A3A3A" d="M392.224,948.99h8.34l5.269,15.971c0.449,1.388,0.757,3.029,0.924,4.926h0.149
			c0.184-1.744,0.541-3.386,1.074-4.926l5.168-15.971h8.165l-11.811,32.018c-1.082,2.961-2.626,5.18-4.632,6.652
			s-4.349,2.209-7.028,2.209c-1.315,0-2.605-0.145-3.87-0.432v-6.145c0.915,0.219,1.914,0.33,2.996,0.33
			c1.349,0,2.525-0.42,3.533-1.258c1.007-0.838,1.793-2.104,2.359-3.795l0.449-1.396L392.224,948.99z"/>
		<path fill="#3A3A3A" d="M437.716,972.696c1.329,0.884,3.682,1.82,5.932,1.82c3.272,0,4.806-1.664,4.806-3.744
			c0-2.185-1.278-3.38-4.602-4.628c-4.448-1.612-6.545-4.108-6.545-7.125c0-4.056,3.222-7.384,8.539-7.384
			c2.506,0,4.704,0.728,6.085,1.56l-1.125,3.328c-0.972-0.624-2.761-1.456-5.063-1.456c-2.658,0-4.142,1.561-4.142,3.433
			c0,2.08,1.483,3.016,4.704,4.264c4.295,1.664,6.494,3.849,6.494,7.593c0,4.42-3.375,7.54-9.255,7.54
			c-2.71,0-5.216-0.676-6.954-1.716L437.716,972.696z"/>
		<path fill="#3A3A3A" d="M458.579,940.455h4.5v15.705h0.103c0.716-1.301,1.841-2.444,3.221-3.225c1.33-0.78,2.915-1.3,4.603-1.3
			c3.323,0,8.641,2.08,8.641,10.765v14.977h-4.499V962.92c0-4.057-1.483-7.488-5.728-7.488c-2.914,0-5.215,2.08-6.033,4.576
			c-0.256,0.624-0.307,1.3-0.307,2.184v15.186h-4.5V940.455z"/>
		<path fill="#3A3A3A" d="M509.357,964.584c0,9.309-6.341,13.364-12.323,13.364c-6.698,0-11.862-4.992-11.862-12.948
			c0-8.424,5.42-13.364,12.271-13.364C504.55,951.636,509.357,956.888,509.357,964.584z M489.722,964.844
			c0,5.513,3.119,9.673,7.516,9.673c4.296,0,7.517-4.108,7.517-9.776c0-4.265-2.096-9.673-7.414-9.673
			C492.023,955.067,489.722,960.06,489.722,964.844z"/>
		<path fill="#3A3A3A" d="M515.033,960.424c0-3.225-0.102-5.824-0.204-8.217h4.039l0.205,4.316h0.102
			c1.841-3.068,4.756-4.888,8.795-4.888c5.982,0,10.482,5.147,10.482,12.792c0,9.049-5.42,13.521-11.249,13.521
			c-3.272,0-6.136-1.456-7.619-3.952h-0.102v13.677h-4.449V960.424z M519.483,967.132c0,0.677,0.102,1.3,0.204,1.872
			c0.818,3.172,3.528,5.356,6.749,5.356c4.756,0,7.517-3.952,7.517-9.725c0-5.044-2.607-9.36-7.363-9.36
			c-3.067,0-5.931,2.236-6.8,5.668c-0.153,0.572-0.307,1.248-0.307,1.873V967.132z"/>
		<path fill="#3A3A3A" d="M544.13,960.424c0-3.225-0.102-5.824-0.204-8.217h4.039l0.205,4.316h0.102
			c1.841-3.068,4.756-4.888,8.795-4.888c5.982,0,10.482,5.147,10.482,12.792c0,9.049-5.42,13.521-11.249,13.521
			c-3.272,0-6.136-1.456-7.619-3.952h-0.103v13.677h-4.448V960.424z M548.578,967.132c0,0.677,0.103,1.3,0.205,1.872
			c0.818,3.172,3.528,5.356,6.749,5.356c4.756,0,7.517-3.952,7.517-9.725c0-5.044-2.607-9.36-7.363-9.36
			c-3.067,0-5.931,2.236-6.8,5.668c-0.153,0.572-0.308,1.248-0.308,1.873V967.132z"/>
		<path fill="#3A3A3A" d="M578.237,945.135c0.052,1.561-1.073,2.809-2.863,2.809c-1.585,0-2.71-1.248-2.71-2.809
			c0-1.611,1.177-2.859,2.813-2.859C577.163,942.275,578.237,943.523,578.237,945.135z M573.226,977.377v-25.17h4.5v25.17H573.226z"
			/>
		<path fill="#3A3A3A" d="M585.192,959.02c0-2.6-0.051-4.732-0.204-6.813h3.988l0.256,4.16h0.102
			c1.228-2.392,4.091-4.731,8.182-4.731c3.426,0,8.743,2.08,8.743,10.712v15.029h-4.499v-14.509c0-4.057-1.483-7.437-5.728-7.437
			c-2.965,0-5.267,2.132-6.033,4.68c-0.204,0.572-0.307,1.353-0.307,2.133v15.133h-4.5V959.02z"/>
		<path fill="#3A3A3A" d="M634.895,952.207c-0.103,1.82-0.204,3.849-0.204,6.917v14.612c0,5.772-1.125,9.309-3.528,11.492
			c-2.403,2.288-5.88,3.017-8.999,3.017c-2.966,0-6.238-0.729-8.232-2.08l1.125-3.484c1.636,1.04,4.192,1.976,7.261,1.976
			c4.602,0,7.977-2.443,7.977-8.788v-2.808h-0.103c-1.381,2.34-4.039,4.212-7.874,4.212c-6.136,0-10.533-5.304-10.533-12.272
			c0-8.528,5.471-13.364,11.146-13.364c4.295,0,6.647,2.288,7.721,4.368h0.103l0.204-3.797H634.895z M630.241,962.14
			c0-0.78-0.051-1.456-0.255-2.08c-0.818-2.651-3.018-4.836-6.29-4.836c-4.295,0-7.362,3.692-7.362,9.517
			c0,4.939,2.454,9.048,7.312,9.048c2.761,0,5.267-1.768,6.238-4.68c0.256-0.78,0.357-1.664,0.357-2.444V962.14z"/>
		<path fill="#3A3A3A" d="M640.317,974.672c0-1.924,1.278-3.275,3.067-3.275c1.79,0,3.017,1.352,3.017,3.275
			c0,1.873-1.176,3.276-3.067,3.276C641.543,977.948,640.317,976.545,640.317,974.672z"/>
	</g>
</g>
<g>
	<g>
		<g enable-background="new    ">
			<path fill="#F05147" d="M1070.991,786.862c-3.706,1.615-7.022,3.707-9.953,6.271v36.016h-19.175v-60.108h9.771l5.374,8.569
				c2.849-2.235,6.146-4.242,9.892-6.023c3.744-1.779,7.124-2.67,10.137-2.67l3.786,15.523
				C1077.972,784.44,1074.696,785.248,1070.991,786.862z"/>
			<path fill="#F05147" d="M1115.628,767.055c6.024,0,11.114,1.408,15.267,4.222c4.152,2.816,7.267,6.582,9.343,11.302
				c2.076,4.719,3.114,10.019,3.114,15.896v5.837h-37.982c1.79,7.038,7.002,10.556,15.633,10.556c5.618,0,11.194-1.571,16.731-4.719
				l5.374,13.536c-2.769,2.071-6.168,3.727-10.198,4.968c-4.03,1.242-8.447,1.863-13.251,1.863c-10.829,0-19.357-2.773-25.586-8.321
				c-6.229-5.546-9.343-13.245-9.343-23.099c0-6.458,1.302-12.109,3.908-16.952c2.605-4.844,6.248-8.569,10.931-11.178
				C1104.249,768.358,1109.603,767.055,1115.628,767.055z M1115.14,783.075c-2.687,0-4.946,0.931-6.778,2.794
				s-2.912,4.327-3.236,7.39h20.029c-0.488-3.063-1.568-5.526-3.236-7.39C1120.248,784.006,1117.99,783.075,1115.14,783.075z"/>
			<path fill="#F05147" d="M1210.277,768.917l-23.326,60.232h-17.342l-21.739-57.128l18.075-5.34l12.701,37.506l12.213-35.271
				H1210.277z"/>
			<path fill="#F05147" d="M1238,749.916c0,2.899-1.038,5.402-3.114,7.514s-4.58,3.167-7.511,3.167
				c-2.852,0-5.313-1.056-7.389-3.167s-3.114-4.614-3.114-7.514c0-2.98,1.038-5.526,3.114-7.638s4.537-3.167,7.389-3.167
				c2.931,0,5.435,1.056,7.511,3.167S1238,746.936,1238,749.916z M1237.024,768.917v60.232h-19.175v-60.232H1237.024z"/>
			<path fill="#F05147" d="M1267.187,818.966c0,2.815-0.958,5.216-2.87,7.203c-1.914,1.987-4.296,2.98-7.145,2.98
				c-2.852,0-5.252-0.993-7.206-2.98s-2.931-4.388-2.931-7.203c0-2.897,0.977-5.34,2.931-7.327s4.354-2.98,7.206-2.98
				c2.849,0,5.23,0.993,7.145,2.98C1266.229,813.626,1267.187,816.068,1267.187,818.966z"/>
		</g>
	</g>
	<g opacity="0.8">
		<g>
			<path fill="#3A3A3A" d="M1045.815,860.851h-3.782v-18.437h10.392v3.203h-6.609v4.754h6.15v3.19h-6.15V860.851z"/>
			<path fill="#3A3A3A" d="M1063.412,846.487c0.513,0,0.938,0.038,1.277,0.113l-0.285,3.606c-0.306-0.084-0.678-0.126-1.116-0.126
				c-1.207,0-2.147,0.315-2.821,0.946c-0.674,0.63-1.011,1.513-1.011,2.647v7.176h-3.782v-14.099h2.864l0.559,2.371h0.186
				c0.43-0.79,1.011-1.428,1.742-1.911C1061.757,846.729,1062.552,846.487,1063.412,846.487z"/>
			<path fill="#3A3A3A" d="M1067.045,843.107c0-1.253,0.686-1.879,2.059-1.879c1.372,0,2.059,0.626,2.059,1.879
				c0,0.597-0.172,1.062-0.515,1.394c-0.344,0.332-0.858,0.498-1.544,0.498C1067.731,844.999,1067.045,844.368,1067.045,843.107z
				 M1070.989,860.851h-3.782v-14.099h3.782V860.851z"/>
			<path fill="#3A3A3A" d="M1081.232,861.103c-2.231,0-3.977-0.626-5.232-1.879c-1.257-1.252-1.886-3.026-1.886-5.321
				c0-2.362,0.581-4.188,1.742-5.479c1.162-1.29,2.768-1.936,4.818-1.936c1.959,0,3.484,0.567,4.576,1.702
				c1.091,1.135,1.637,2.703,1.637,4.704v1.866h-8.941c0.042,1.093,0.36,1.946,0.955,2.56c0.596,0.614,1.431,0.921,2.505,0.921
				c0.835,0,1.625-0.088,2.369-0.265s1.521-0.458,2.331-0.845v2.976c-0.661,0.337-1.368,0.587-2.12,0.75
				C1083.233,861.021,1082.315,861.103,1081.232,861.103z M1080.698,849.224c-0.802,0-1.43,0.259-1.885,0.775
				c-0.455,0.518-0.715,1.251-0.781,2.201h5.308c-0.017-0.95-0.26-1.684-0.731-2.201
				C1082.137,849.482,1081.5,849.224,1080.698,849.224z"/>
			<path fill="#3A3A3A" d="M1102.761,860.851h-3.782v-8.234c0-1.018-0.178-1.78-0.533-2.289s-0.922-0.763-1.699-0.763
				c-1.059,0-1.823,0.359-2.294,1.078c-0.472,0.719-0.707,1.91-0.707,3.575v6.633h-3.782v-14.099h2.89l0.508,1.804h0.211
				c0.422-0.682,1.003-1.196,1.742-1.545c0.74-0.349,1.581-0.523,2.524-0.523c1.611,0,2.835,0.443,3.67,1.33
				c0.835,0.888,1.253,2.167,1.253,3.84V860.851z"/>
			<path fill="#3A3A3A" d="M1111.044,861.103c-1.629,0-2.908-0.643-3.838-1.929c-0.93-1.287-1.396-3.069-1.396-5.348
				c0-2.312,0.474-4.112,1.42-5.403c0.947-1.29,2.251-1.936,3.913-1.936c1.744,0,3.075,0.689,3.993,2.068h0.124
				c-0.19-1.051-0.285-1.988-0.285-2.813v-4.515h3.795v19.622h-2.902l-0.731-1.828h-0.161
				C1114.115,860.409,1112.805,861.103,1111.044,861.103z M1112.371,858.038c0.968,0,1.676-0.285,2.127-0.857
				c0.45-0.571,0.696-1.542,0.737-2.913v-0.416c0-1.513-0.229-2.598-0.688-3.253c-0.459-0.656-1.205-0.984-2.239-0.984
				c-0.843,0-1.498,0.364-1.965,1.091c-0.468,0.728-0.701,1.785-0.701,3.172s0.236,2.428,0.707,3.121
				C1110.822,857.691,1111.495,858.038,1112.371,858.038z"/>
			<path fill="#3A3A3A" d="M1126.509,860.851h-3.782v-19.622h3.782V860.851z"/>
			<path fill="#3A3A3A" d="M1128.493,846.752h4.142l2.617,7.932c0.223,0.689,0.376,1.506,0.459,2.447h0.074
				c0.091-0.866,0.269-1.682,0.533-2.447l2.567-7.932h4.055l-5.865,15.902c-0.538,1.471-1.305,2.572-2.301,3.304
				s-2.16,1.097-3.491,1.097c-0.653,0-1.294-0.071-1.922-0.214v-3.052c0.454,0.109,0.95,0.164,1.488,0.164
				c0.67,0,1.254-0.208,1.755-0.625c0.5-0.416,0.891-1.044,1.172-1.885l0.223-0.693L1128.493,846.752z"/>
			<path fill="#3A3A3A" d="M1151.087,858.525c0.66,0.439,1.828,0.904,2.945,0.904c1.625,0,2.387-0.826,2.387-1.86
				c0-1.085-0.635-1.679-2.285-2.299c-2.209-0.801-3.25-2.041-3.25-3.539c0-2.015,1.6-3.668,4.24-3.668
				c1.244,0,2.336,0.361,3.021,0.774l-0.559,1.653c-0.482-0.31-1.371-0.723-2.514-0.723c-1.32,0-2.057,0.774-2.057,1.705
				c0,1.033,0.736,1.498,2.336,2.118c2.133,0.826,3.225,1.911,3.225,3.771c0,2.195-1.676,3.746-4.596,3.746
				c-1.346,0-2.59-0.336-3.453-0.853L1151.087,858.525z"/>
			<path fill="#3A3A3A" d="M1161.449,842.509h2.234v7.802h0.051c0.355-0.646,0.914-1.214,1.6-1.602
				c0.66-0.388,1.447-0.646,2.285-0.646c1.65,0,4.291,1.033,4.291,5.348v7.439h-2.234v-7.182c0-2.015-0.736-3.72-2.844-3.72
				c-1.447,0-2.59,1.033-2.996,2.273c-0.127,0.31-0.152,0.646-0.152,1.085v7.543h-2.234V842.509z"/>
			<path fill="#3A3A3A" d="M1186.666,854.496c0,4.624-3.148,6.639-6.119,6.639c-3.326,0-5.891-2.48-5.891-6.433
				c0-4.185,2.691-6.639,6.094-6.639C1184.28,848.063,1186.666,850.672,1186.666,854.496z M1176.916,854.625
				c0,2.738,1.549,4.805,3.732,4.805c2.133,0,3.732-2.041,3.732-4.856c0-2.118-1.041-4.805-3.682-4.805
				S1176.916,852.248,1176.916,854.625z"/>
			<path fill="#3A3A3A" d="M1189.488,852.429c0-1.602-0.051-2.893-0.102-4.081h2.006l0.102,2.144h0.051
				c0.914-1.523,2.361-2.428,4.367-2.428c2.971,0,5.205,2.558,5.205,6.354c0,4.495-2.691,6.717-5.586,6.717
				c-1.625,0-3.047-0.724-3.783-1.963h-0.051v6.794h-2.209V852.429z M1191.697,855.762c0,0.336,0.051,0.646,0.102,0.93
				c0.406,1.576,1.752,2.661,3.352,2.661c2.361,0,3.732-1.964,3.732-4.831c0-2.506-1.295-4.65-3.656-4.65
				c-1.523,0-2.945,1.111-3.377,2.816c-0.076,0.284-0.152,0.62-0.152,0.93V855.762z"/>
			<path fill="#3A3A3A" d="M1203.939,852.429c0-1.602-0.051-2.893-0.102-4.081h2.006l0.102,2.144h0.051
				c0.914-1.523,2.361-2.428,4.367-2.428c2.971,0,5.205,2.558,5.205,6.354c0,4.495-2.691,6.717-5.586,6.717
				c-1.625,0-3.047-0.724-3.783-1.963h-0.051v6.794h-2.209V852.429z M1206.148,855.762c0,0.336,0.051,0.646,0.102,0.93
				c0.406,1.576,1.752,2.661,3.352,2.661c2.361,0,3.732-1.964,3.732-4.831c0-2.506-1.295-4.65-3.656-4.65
				c-1.523,0-2.945,1.111-3.377,2.816c-0.076,0.284-0.152,0.62-0.152,0.93V855.762z"/>
			<path fill="#3A3A3A" d="M1220.878,844.834c0.025,0.775-0.533,1.396-1.422,1.396c-0.787,0-1.346-0.62-1.346-1.396
				c0-0.801,0.584-1.421,1.396-1.421C1220.345,843.413,1220.878,844.033,1220.878,844.834z M1218.39,860.851v-12.503h2.234v12.503
				H1218.39z"/>
			<path fill="#3A3A3A" d="M1224.332,851.731c0-1.292-0.025-2.351-0.102-3.384h1.98l0.127,2.066h0.051
				c0.609-1.188,2.031-2.351,4.063-2.351c1.701,0,4.342,1.033,4.342,5.321v7.466h-2.234v-7.207c0-2.016-0.736-3.694-2.844-3.694
				c-1.473,0-2.615,1.059-2.996,2.325c-0.102,0.284-0.152,0.671-0.152,1.059v7.518h-2.234V851.731z"/>
			<path fill="#3A3A3A" d="M1249.016,848.348c-0.051,0.904-0.102,1.911-0.102,3.436v7.259c0,2.868-0.559,4.624-1.752,5.709
				c-1.193,1.137-2.92,1.499-4.469,1.499c-1.473,0-3.098-0.362-4.088-1.033l0.559-1.731c0.813,0.517,2.082,0.981,3.605,0.981
				c2.285,0,3.961-1.214,3.961-4.365v-1.396h-0.051c-0.686,1.163-2.006,2.093-3.91,2.093c-3.047,0-5.23-2.635-5.23-6.097
				c0-4.236,2.717-6.639,5.535-6.639c2.133,0,3.301,1.137,3.834,2.17h0.051l0.102-1.886H1249.016z M1246.705,853.281
				c0-0.388-0.025-0.723-0.127-1.033c-0.406-1.317-1.498-2.402-3.123-2.402c-2.133,0-3.656,1.834-3.656,4.728
				c0,2.454,1.219,4.495,3.631,4.495c1.371,0,2.615-0.879,3.098-2.325c0.127-0.388,0.178-0.827,0.178-1.214V853.281z"/>
			<path fill="#3A3A3A" d="M1251.711,859.507c0-0.955,0.635-1.627,1.523-1.627s1.498,0.672,1.498,1.627
				c0,0.931-0.584,1.628-1.523,1.628C1252.321,861.135,1251.711,860.438,1251.711,859.507z"/>
		</g>
	</g>
</g>
<g>
	<g enable-background="new    ">
		<path fill="#F05147" d="M1646.447,586.408c-7.462,3.25-14.139,7.462-20.041,12.627v72.515H1587.8V550.525h19.672l10.819,17.254
			c5.736-4.501,12.376-8.541,19.918-12.127c7.538-3.584,14.343-5.377,20.409-5.377l7.623,31.256
			C1660.501,581.531,1653.905,583.157,1646.447,586.408z"/>
		<path fill="#F05147" d="M1736.322,546.525c12.13,0,22.377,2.836,30.737,8.501c8.36,5.669,14.631,13.253,18.812,22.755
			s6.271,20.172,6.271,32.006v11.753h-76.475c3.604,14.171,14.097,21.254,31.475,21.254c11.312,0,22.538-3.165,33.688-9.502
			l10.819,27.256c-5.575,4.169-12.418,7.501-20.532,10.002s-17.01,3.751-26.68,3.751c-21.805,0-38.976-5.584-51.517-16.754
			c-12.54-11.166-18.811-26.67-18.811-46.51c0-13.002,2.62-24.379,7.868-34.131c5.245-9.752,12.579-17.254,22.008-22.505
			C1713.41,549.15,1724.188,546.525,1736.322,546.525z M1735.338,578.781c-5.41,0-9.959,1.875-13.647,5.626
			s-5.863,8.713-6.517,14.878h40.328c-0.984-6.165-3.158-11.127-6.517-14.878C1745.623,580.656,1741.074,578.781,1735.338,578.781z"
			/>
		<path fill="#F05147" d="M1926.89,550.275l-46.967,121.274h-34.917l-43.771-115.022l36.393-10.752l25.574,75.515l24.59-71.015
			H1926.89z"/>
		<path fill="#F05147" d="M1982.708,512.018c0,5.838-2.091,10.877-6.271,15.129c-4.181,4.25-9.222,6.376-15.123,6.376
			c-5.74,0-10.696-2.126-14.877-6.376c-4.18-4.252-6.271-9.291-6.271-15.129c0-6.001,2.091-11.127,6.271-15.377
			c4.181-4.252,9.137-6.377,14.877-6.377c5.901,0,10.942,2.125,15.123,6.377C1980.617,500.891,1982.708,506.017,1982.708,512.018z
			 M1980.74,550.275V671.55h-38.605V550.275H1980.74z"/>
		<path fill="#F05147" d="M2041.475,651.046c0,5.669-1.929,10.502-5.778,14.503c-3.854,4-8.649,6.001-14.386,6.001
			c-5.74,0-10.573-2.001-14.508-6.001c-3.935-4.001-5.901-8.834-5.901-14.503c0-5.833,1.967-10.753,5.901-14.753
			c3.935-4.001,8.768-6.002,14.508-6.002c5.736,0,10.532,2.001,14.386,6.002C2039.546,640.293,2041.475,645.213,2041.475,651.046z"
			/>
	</g>
</g>
</svg>
